0
SECTION
2
HEADER
9
$INSUNITS
70
4
9
$ACADVER
1
AC1014
9
$HANDSEED
5
FFFF
0
ENDSEC
0
SECTION
2
TABLES
0
TABLE
2
VPORT
5
8
100
AcDbSymbolTable
0
ENDTAB
0
TABLE
2
LTYPE
5
5
100
AcDbSymbolTable
0
LTYPE
5
14
100
AcDbSymbolTableRecord
100
AcDbLinetypeTableRecord
2
BYBLOCK
70
0
0
LTYPE
5
15
100
AcDbSymbolTableRecord
100
AcDbLinetypeTableRecord
2
BYLAYER
70
0
0
LTYPE
5
16
100
AcDbSymbolTableRecord
100
AcDbLinetypeTableRecord
2
DASHED
70
0
3
Dashed __ __ __ __ __ __ __ __ __ __ __ __ __ _
72
65
73
2
40
0.75
49
0.5
74
0
49
-0.25
74
0
0
ENDTAB
0
TABLE
2
LAYER
5
2
100
AcDbSymbolTable
70
2
0
LAYER
5
50
100
AcDbSymbolTableRecord
100
AcDbLayerTableRecord
2
0
70
0
62
7
6
CONTINUOUS
0
ENDTAB
0
TABLE
2
STYLE
5
3
100
AcDbSymbolTable
70
1
0
STYLE
5
11
100
AcDbSymbolTableRecord
100
AcDbTextStyleTableRecord
2
STANDARD
70
0
0
ENDTAB
0
TABLE
2
VIEW
5
6
100
AcDbSymbolTable
70
0
0
ENDTAB
0
TABLE
2
UCS
5
7
100
AcDbSymbolTable
70
0
0
ENDTAB
0
TABLE
2
APPID
5
9
100
AcDbSymbolTable
70
2
0
APPID
5
12
100
AcDbSymbolTableRecord
100
AcDbRegAppTableRecord
2
ACAD
70
0
0
ENDTAB
0
TABLE
2
DIMSTYLE
5
A
100
AcDbSymbolTable
70
1
0
ENDTAB
0
TABLE
2
BLOCK_RECORD
5
1
100
AcDbSymbolTable
70
1
0
BLOCK_RECORD
5
1F
100
AcDbSymbolTableRecord
100
AcDbBlockTableRecord
2
*MODEL_SPACE
0
BLOCK_RECORD
5
1B
100
AcDbSymbolTableRecord
100
AcDbBlockTableRecord
2
*PAPER_SPACE
0
ENDTAB
0
ENDSEC
0
SECTION
2
BLOCKS
0
BLOCK
5
20
100
AcDbEntity
100
AcDbBlockBegin
2
*MODEL_SPACE
0
ENDBLK
5
21
100
AcDbEntity
100
AcDbBlockEnd
0
BLOCK
5
1C
100
AcDbEntity
100
AcDbBlockBegin
2
*PAPER_SPACE
0
ENDBLK
5
1D
100
AcDbEntity
100
AcDbBlockEnd
0
ENDSEC
0
SECTION
2
ENTITIES
0
CIRCLE
5
100
100
AcDbEntity
8
0
100
AcDbCircle
10
-135.24025
20
-75.680252999999993
30
0
40
1.6000000000000003
210
0
220
0
230
1
0
CIRCLE
5
101
100
AcDbEntity
8
0
100
AcDbCircle
10
-135.24025
20
116.32025
30
0
40
1.6000000000000003
210
0
220
0
230
1
0
CIRCLE
5
102
100
AcDbEntity
8
0
100
AcDbCircle
10
-132.22526999999999
20
23.414997
30
0
40
1.6000000000000003
210
0
220
0
230
1
0
CIRCLE
5
103
100
AcDbEntity
8
0
100
AcDbCircle
10
-15.24
20
-75.680252999999993
30
0
40
1.6000000000000003
210
0
220
0
230
1
0
CIRCLE
5
104
100
AcDbEntity
8
0
100
AcDbCircle
10
-15.24
20
116.32025
30
0
40
1.6000000000000003
210
0
220
0
230
1
0
CIRCLE
5
105
100
AcDbEntity
8
0
100
AcDbCircle
10
101.74527
20
23.409966000000001
30
0
40
1.6000000000000003
210
0
220
0
230
1
0
CIRCLE
5
106
100
AcDbEntity
8
0
100
AcDbCircle
10
104.76025
20
-75.680252999999993
30
0
40
1.6000000000000003
210
0
220
0
230
1
0
CIRCLE
5
107
100
AcDbEntity
8
0
100
AcDbCircle
10
104.76025
20
116.32025
30
0
40
1.6000000000000003
210
0
220
0
230
1
0
LWPOLYLINE
5
108
100
AcDbEntity
8
0
100
AcDbPolyline
90
8
70
1
43
0.0
10
-140.32251999992204
20
-75.699178065061417
42
0.41421539975352351
10
-136.33521992178788
20
-79.686502999999988
10
105.66528519820213
20
-79.686502999920378
42
0.4142135545250521
10
109.65255999992107
20
-75.699177908637154
10
109.65256000000002
20
116.30119999999999
42
0.4142135545250521
10
105.6652601068393
20
120.2885
10
-136.33522989316072
20
120.2885
42
0.41421358381437345
10
-140.32253
20
116.30119981494857
0
LWPOLYLINE
5
109
100
AcDbEntity
8
0
100
AcDbPolyline
90
4
70
1
43
0.0
10
-102.17626000000001
20
73.226972000000004
10
-88.176263000000006
20
73.226972000000004
10
-88.176263000000006
20
87.226972000000004
10
-102.17626000000001
20
87.226972000000004
0
LWPOLYLINE
5
110
100
AcDbEntity
8
0
100
AcDbPolyline
90
4
70
1
43
0.0
10
-132.25702999999999
20
28.433488000000004
10
-118.25703000000001
20
28.433488000000004
10
-118.25703000000001
20
42.433487999999997
10
-132.25702999999999
20
42.433487999999997
0
LWPOLYLINE
5
111
100
AcDbEntity
8
0
100
AcDbPolyline
90
4
70
1
43
0.0
10
62.823738000000006
20
-26.773028
10
76.823738000000006
20
-26.773028
10
76.823738000000006
20
-12.773028000000002
10
62.823738000000006
20
-12.773028000000002
0
LWPOLYLINE
5
112
100
AcDbEntity
8
0
100
AcDbPolyline
90
4
70
1
43
0.0
10
57.823738000000006
20
73.226972000000004
10
71.823738000000006
20
73.226972000000004
10
71.823738000000006
20
87.226972000000004
10
57.823738000000006
20
87.226972000000004
0
LWPOLYLINE
5
113
100
AcDbEntity
8
0
100
AcDbPolyline
90
4
70
1
43
0.0
10
27.823738000000002
20
73.226972000000004
10
41.823737999999999
20
73.226972000000004
10
41.823737999999999
20
87.226972000000004
10
27.823738000000002
20
87.226972000000004
0
LWPOLYLINE
5
114
100
AcDbEntity
8
0
100
AcDbPolyline
90
4
70
1
43
0.0
10
-2.1762625
20
73.226972000000004
10
11.823738000000002
20
73.226972000000004
10
11.823738000000002
20
87.226972000000004
10
-2.1762624999999991
20
87.226972000000004
0
LWPOLYLINE
5
115
100
AcDbEntity
8
0
100
AcDbPolyline
90
4
70
1
43
0.0
10
-42.176262000000008
20
73.226972000000004
10
-28.176262000000001
20
73.226972000000004
10
-28.176262000000001
20
87.226972000000004
10
-42.176262000000008
20
87.226972000000004
0
LWPOLYLINE
5
116
100
AcDbEntity
8
0
100
AcDbPolyline
90
4
70
1
43
0.0
10
-107.17626000000001
20
-26.773028
10
-93.176263000000006
20
-26.773028
10
-93.176263000000006
20
-12.773028000000002
10
-107.17626000000001
20
-12.773028000000002
0
LWPOLYLINE
5
117
100
AcDbEntity
8
0
100
AcDbPolyline
90
4
70
1
43
0.0
10
-72.176263000000006
20
73.226972000000004
10
-58.176262000000001
20
73.226972000000004
10
-58.176262000000001
20
87.226972000000004
10
-72.176263000000006
20
87.226972000000004
0
LWPOLYLINE
5
118
100
AcDbEntity
8
0
100
AcDbPolyline
90
5
70
1
43
0.0
10
-55.240000000000009
20
13.32
10
24.760000000000009
20
13.32
10
-55.240000000000009
20
13.32
10
24.760000000000005
20
27.32
10
-55.240000000000009
20
27.32
0
LWPOLYLINE
5
119
100
AcDbEntity
8
0
100
AcDbPolyline
90
7
70
1
43
0.0
10
24.760000000000009
20
13.32
10
24.760000000000005
20
27.32
10
24.760000000000009
20
13.32
10
-55.240000000000009
20
13.32
10
24.760000000000005
20
27.32
10
24.760000000000009
20
13.32
10
-55.240000000000009
20
27.32
0
LWPOLYLINE
5
120
100
AcDbEntity
8
0
100
AcDbPolyline
90
4
70
1
43
0.0
10
67.798550000000006
20
-68.680000000000007
10
103.05500000000002
20
-68.680000000000007
10
103.05500000000002
20
-47.68
10
67.798550000000006
20
-47.68
0
LWPOLYLINE
5
121
100
AcDbEntity
8
0
100
AcDbPolyline
90
4
70
1
43
0.0
10
88.030253000000002
20
28.307734
10
102.03025
20
28.307734
10
102.03025
20
42.307734000000004
10
88.030253000000002
20
42.307734000000004
0
LWPOLYLINE
5
122
100
AcDbEntity
8
0
100
AcDbPolyline
90
2
70
1
43
0.0
10
-55.240000000000009
20
27.32
10
-55.240000000000009
20
13.32
0
LWPOLYLINE
5
123
100
AcDbEntity
8
0
100
AcDbPolyline
90
2
70
1
43
0.0
10
24.760000000000005
20
27.32
10
-55.240000000000009
20
27.32
0
CIRCLE
5
124
100
AcDbEntity
8
0
100
AcDbCircle
10
-132.25702999999999
20
42.433487999999997
30
0
40
0.50000000000000711
210
0
220
0
230
1
0
CIRCLE
5
125
100
AcDbEntity
8
0
100
AcDbCircle
10
-132.25702999999999
20
42.433487999999997
30
0
40
0.50000000000000711
210
0
220
0
230
1
0
CIRCLE
5
126
100
AcDbEntity
8
0
100
AcDbCircle
10
-118.25703000000001
20
42.433487999999997
30
0
40
0.49999999999999689
210
0
220
0
230
1
0
CIRCLE
5
127
100
AcDbEntity
8
0
100
AcDbCircle
10
-118.25703000000001
20
28.433488000000004
30
0
40
0.49999999999999822
210
0
220
0
230
1
0
CIRCLE
5
128
100
AcDbEntity
8
0
100
AcDbCircle
10
-132.25702999999999
20
28.433488000000004
30
0
40
0.49999999999999822
210
0
220
0
230
1
0
CIRCLE
5
129
100
AcDbEntity
8
0
100
AcDbCircle
10
-107.17626000000001
20
-12.773028000000002
30
0
40
0.50000000000000711
210
0
220
0
230
1
0
CIRCLE
5
130
100
AcDbEntity
8
0
100
AcDbCircle
10
-93.176263000000006
20
-12.773028000000002
30
0
40
0.50000000000000711
210
0
220
0
230
1
0
CIRCLE
5
131
100
AcDbEntity
8
0
100
AcDbCircle
10
-93.176263000000006
20
-26.773028
30
0
40
0.50000000000000711
210
0
220
0
230
1
0
CIRCLE
5
132
100
AcDbEntity
8
0
100
AcDbCircle
10
-107.17626000000001
20
-26.773028
30
0
40
0.49999999999999822
210
0
220
0
230
1
0
CIRCLE
5
133
100
AcDbEntity
8
0
100
AcDbCircle
10
-102.17626000000001
20
87.226972000000004
30
0
40
0.50000000000000711
210
0
220
0
230
1
0
CIRCLE
5
134
100
AcDbEntity
8
0
100
AcDbCircle
10
-88.176263000000006
20
87.226972000000004
30
0
40
0.49999999999999761
210
0
220
0
230
1
0
CIRCLE
5
135
100
AcDbEntity
8
0
100
AcDbCircle
10
-102.17626000000001
20
73.226972000000004
30
0
40
0.50000000000000711
210
0
220
0
230
1
0
CIRCLE
5
136
100
AcDbEntity
8
0
100
AcDbCircle
10
-88.176263000000006
20
73.226972000000004
30
0
40
0.50000000000000711
210
0
220
0
230
1
0
CIRCLE
5
137
100
AcDbEntity
8
0
100
AcDbCircle
10
-72.176263000000006
20
87.226972000000004
30
0
40
0.49999999999999922
210
0
220
0
230
1
0
CIRCLE
5
138
100
AcDbEntity
8
0
100
AcDbCircle
10
-58.176262000000001
20
87.226972000000004
30
0
40
0.49999999999999611
210
0
220
0
230
1
0
CIRCLE
5
139
100
AcDbEntity
8
0
100
AcDbCircle
10
-72.176263000000006
20
73.226972000000004
30
0
40
0.49999999999999573
210
0
220
0
230
1
0
CIRCLE
5
140
100
AcDbEntity
8
0
100
AcDbCircle
10
-58.176262000000001
20
73.226972000000004
30
0
40
0.50000000000000211
210
0
220
0
230
1
0
CIRCLE
5
141
100
AcDbEntity
8
0
100
AcDbCircle
10
-42.176262000000008
20
87.226972000000004
30
0
40
0.50000000000000344
210
0
220
0
230
1
0
CIRCLE
5
142
100
AcDbEntity
8
0
100
AcDbCircle
10
-42.176262000000008
20
73.226972000000004
30
0
40
0.50000000000000477
210
0
220
0
230
1
0
CIRCLE
5
143
100
AcDbEntity
8
0
100
AcDbCircle
10
-28.176262000000001
20
73.226972000000004
30
0
40
0.50000000000000022
210
0
220
0
230
1
0
CIRCLE
5
144
100
AcDbEntity
8
0
100
AcDbCircle
10
-28.176262000000001
20
87.226972000000004
30
0
40
0.49999999999999933
210
0
220
0
230
1
0
CIRCLE
5
145
100
AcDbEntity
8
0
100
AcDbCircle
10
-2.1762624999999991
20
87.226972000000004
30
0
40
0.50000000000000711
210
0
220
0
230
1
0
CIRCLE
5
146
100
AcDbEntity
8
0
100
AcDbCircle
10
-2.1762625
20
73.226972000000004
30
0
40
0.49999999999999989
210
0
220
0
230
1
0
CIRCLE
5
147
100
AcDbEntity
8
0
100
AcDbCircle
10
11.823738000000002
20
73.226972000000004
30
0
40
0.50000000000000044
210
0
220
0
230
1
0
CIRCLE
5
148
100
AcDbEntity
8
0
100
AcDbCircle
10
11.823738000000002
20
87.226972000000004
30
0
40
0.49999999999999856
210
0
220
0
230
1
0
CIRCLE
5
149
100
AcDbEntity
8
0
100
AcDbCircle
10
27.823738000000002
20
87.226972000000004
30
0
40
0.49999999999999822
210
0
220
0
230
1
0
CIRCLE
5
150
100
AcDbEntity
8
0
100
AcDbCircle
10
27.823738000000002
20
73.226972000000004
30
0
40
0.49999999999999822
210
0
220
0
230
1
0
CIRCLE
5
151
100
AcDbEntity
8
0
100
AcDbCircle
10
41.823737999999999
20
73.226972000000004
30
0
40
0.49999999999999822
210
0
220
0
230
1
0
CIRCLE
5
152
100
AcDbEntity
8
0
100
AcDbCircle
10
41.823737999999999
20
87.226972000000004
30
0
40
0.49999999999999828
210
0
220
0
230
1
0
CIRCLE
5
153
100
AcDbEntity
8
0
100
AcDbCircle
10
57.823738000000006
20
87.226972000000004
30
0
40
0.49999999999999822
210
0
220
0
230
1
0
CIRCLE
5
154
100
AcDbEntity
8
0
100
AcDbCircle
10
57.823738000000006
20
73.226972000000004
30
0
40
0.49999999999999822
210
0
220
0
230
1
0
CIRCLE
5
155
100
AcDbEntity
8
0
100
AcDbCircle
10
71.823738000000006
20
73.226972000000004
30
0
40
0.49999999999999911
210
0
220
0
230
1
0
CIRCLE
5
156
100
AcDbEntity
8
0
100
AcDbCircle
10
71.823738000000006
20
87.226972000000004
30
0
40
0.50000000000000711
210
0
220
0
230
1
0
CIRCLE
5
157
100
AcDbEntity
8
0
100
AcDbCircle
10
88.030253000000002
20
42.307734000000004
30
0
40
0.50000000000000711
210
0
220
0
230
1
0
CIRCLE
5
158
100
AcDbEntity
8
0
100
AcDbCircle
10
88.030253000000002
20
28.307734
30
0
40
0.50000000000000711
210
0
220
0
230
1
0
CIRCLE
5
159
100
AcDbEntity
8
0
100
AcDbCircle
10
102.03025
20
28.307734
30
0
40
0.49999999999999822
210
0
220
0
230
1
0
CIRCLE
5
160
100
AcDbEntity
8
0
100
AcDbCircle
10
102.03025
20
42.307734000000004
30
0
40
0.50000000000000522
210
0
220
0
230
1
0
CIRCLE
5
161
100
AcDbEntity
8
0
100
AcDbCircle
10
62.823738000000006
20
-12.773028000000002
30
0
40
0.49999999999999822
210
0
220
0
230
1
0
CIRCLE
5
162
100
AcDbEntity
8
0
100
AcDbCircle
10
62.823738000000006
20
-26.773028
30
0
40
0.49999999999999822
210
0
220
0
230
1
0
CIRCLE
5
163
100
AcDbEntity
8
0
100
AcDbCircle
10
76.823738000000006
20
-26.773028
30
0
40
0.50000000000000067
210
0
220
0
230
1
0
CIRCLE
5
164
100
AcDbEntity
8
0
100
AcDbCircle
10
76.823738000000006
20
-12.773028000000002
30
0
40
0.49999999999999745
210
0
220
0
230
1
0
ENDSEC
0
SECTION
2
OBJECTS
0
DICTIONARY
5
C
100
AcDbDictionary
3
ACAD_GROUP
350
D
3
ACAD_MLINESTYLE
350
17
0
DICTIONARY
5
D
100
AcDbDictionary
0
DICTIONARY
5
1A
330
C
100
AcDbDictionary
0
DICTIONARY
5
17
100
AcDbDictionary
0
ENDSEC
0
EOF
