0
SECTION
2
HEADER
9
$INSUNITS
70
4
9
$ACADVER
1
AC1014
9
$HANDSEED
5
FFFF
0
ENDSEC
0
SECTION
2
TABLES
0
TABLE
2
VPORT
5
8
100
AcDbSymbolTable
0
ENDTAB
0
TABLE
2
LTYPE
5
5
100
AcDbSymbolTable
0
LTYPE
5
14
100
AcDbSymbolTableRecord
100
AcDbLinetypeTableRecord
2
BYBLOCK
70
0
0
LTYPE
5
15
100
AcDbSymbolTableRecord
100
AcDbLinetypeTableRecord
2
BYLAYER
70
0
0
LTYPE
5
16
100
AcDbSymbolTableRecord
100
AcDbLinetypeTableRecord
2
DASHED
70
0
3
Dashed __ __ __ __ __ __ __ __ __ __ __ __ __ _
72
65
73
2
40
0.75
49
0.5
74
0
49
-0.25
74
0
0
ENDTAB
0
TABLE
2
LAYER
5
2
100
AcDbSymbolTable
70
2
0
LAYER
5
50
100
AcDbSymbolTableRecord
100
AcDbLayerTableRecord
2
0
70
0
62
7
6
CONTINUOUS
0
ENDTAB
0
TABLE
2
STYLE
5
3
100
AcDbSymbolTable
70
1
0
STYLE
5
11
100
AcDbSymbolTableRecord
100
AcDbTextStyleTableRecord
2
STANDARD
70
0
0
ENDTAB
0
TABLE
2
VIEW
5
6
100
AcDbSymbolTable
70
0
0
ENDTAB
0
TABLE
2
UCS
5
7
100
AcDbSymbolTable
70
0
0
ENDTAB
0
TABLE
2
APPID
5
9
100
AcDbSymbolTable
70
2
0
APPID
5
12
100
AcDbSymbolTableRecord
100
AcDbRegAppTableRecord
2
ACAD
70
0
0
ENDTAB
0
TABLE
2
DIMSTYLE
5
A
100
AcDbSymbolTable
70
1
0
ENDTAB
0
TABLE
2
BLOCK_RECORD
5
1
100
AcDbSymbolTable
70
1
0
BLOCK_RECORD
5
1F
100
AcDbSymbolTableRecord
100
AcDbBlockTableRecord
2
*MODEL_SPACE
0
BLOCK_RECORD
5
1B
100
AcDbSymbolTableRecord
100
AcDbBlockTableRecord
2
*PAPER_SPACE
0
ENDTAB
0
ENDSEC
0
SECTION
2
BLOCKS
0
BLOCK
5
20
100
AcDbEntity
100
AcDbBlockBegin
2
*MODEL_SPACE
0
ENDBLK
5
21
100
AcDbEntity
100
AcDbBlockEnd
0
BLOCK
5
1C
100
AcDbEntity
100
AcDbBlockBegin
2
*PAPER_SPACE
0
ENDBLK
5
1D
100
AcDbEntity
100
AcDbBlockEnd
0
ENDSEC
0
SECTION
2
ENTITIES
0
LWPOLYLINE
5
100
100
AcDbEntity
8
0
100
AcDbPolyline
90
8
70
1
43
0.0
10
-121.09522479045
20
-100.00650241300001
10
120.90525781050002
20
-100.00650241300001
42
0.41421542225001451
10
124.89255778501959
20
-96.019177118999011
10
124.8925577851
20
95.981203962399988
42
0.41421356237309892
10
120.90525781050002
20
99.968503937000008
10
-121.09522479045
20
99.968503937000008
42
0.41421356237309764
10
-125.08252476505001
20
95.981203962400002
10
-125.08252476505
20
-96.019177118998996
42
0.41421542225589159
0
CIRCLE
5
101
100
AcDbEntity
8
0
100
AcDbCircle
10
120.00025400049999
20
96.000254000500007
30
0
40
1.5000000000000002
210
0
220
0
230
1
6
DASHED
0
CIRCLE
5
102
100
AcDbEntity
8
0
100
AcDbCircle
10
120.00025400049999
20
-96.000254000507994
30
0
40
1.5000000000000002
210
0
220
0
230
1
6
DASHED
0
CIRCLE
5
103
100
AcDbEntity
8
0
100
AcDbCircle
10
0
20
96.000254000500007
30
0
40
1.5000000000000002
210
0
220
0
230
1
6
DASHED
0
CIRCLE
5
104
100
AcDbEntity
8
0
100
AcDbCircle
10
0
20
-96.000254000507994
30
0
40
1.5000000000000002
210
0
220
0
230
1
6
DASHED
0
CIRCLE
5
105
100
AcDbEntity
8
0
100
AcDbCircle
10
-120.00025400049999
20
96.000254000500007
30
0
40
1.5000000000000002
210
0
220
0
230
1
6
DASHED
0
CIRCLE
5
106
100
AcDbEntity
8
0
100
AcDbCircle
10
-120.00025400049999
20
-96.000254000507994
30
0
40
1.5000000000000002
210
0
220
0
230
1
6
DASHED
0
LWPOLYLINE
5
107
100
AcDbEntity
8
0
100
AcDbPolyline
90
6
70
1
43
0.0
10
99.992588637481461
20
45.217501805470988
10
10.155610596086131
20
45.217501805470988
10
10.155610596086131
20
85.000001266598701
10
99.992588637481447
20
85.000001266598701
42
-0.41421356237309398
10
104.99258863748146
20
80.000001266598701
10
104.99258863748146
20
50.217501805471002
42
-0.41421356237309503
0
LINE
5
108
100
AcDbEntity
8
0
100
AcDbLine
10
-0.094983489975000168
20
-100.00650241300001
30
0
11
-0.094983489975000168
21
99.968503937000008
31
0
6
DASHED
0
LWPOLYLINE
5
109
100
AcDbEntity
8
0
100
AcDbPolyline
90
6
70
1
43
0.0
10
-10.345577576036131
20
45.217501805470988
10
-10.345577576036131
20
85.000001266598701
10
-99.953959968785028
20
85.000001266598701
42
0.41421356237309293
10
-104.95395996878503
20
80.000001266598701
10
-104.95395996878503
20
50.217501805470988
42
0.41421356237309453
10
-99.953959968785028
20
45.217501805471002
0
LINE
5
110
100
AcDbEntity
8
0
100
AcDbLine
10
-117.98698051364489
20
24.889853307501536
30
0
11
-117.98698051364489
21
6.9675369555574633
31
0
0
LWPOLYLINE
5
111
100
AcDbEntity
8
0
100
AcDbPolyline
90
9
70
1
43
0.0
10
118.51949080359194
20
6.7840379454704411
10
118.51949080359199
20
24.889853307501536
42
0.41421356237309503
10
113.51949080359199
20
29.889853307501536
10
64.976180300341028
20
29.889853307501536
10
64.976180300341028
20
-8.00771180137248
10
87.282564066383301
20
-8.0077118014032838
10
107.98550644016622
20
-8.007711801407023
42
0.41421356237309337
10
112.98550644016566
20
-3.0077118014075306
10
112.98550644016565
20
3.0462897495106764
42
-0.53833054790464097
0
LWPOLYLINE
5
112
100
AcDbEntity
8
0
100
AcDbPolyline
90
6
70
1
43
0.0
10
-100.21996245218487
20
-22.927163777452794
10
-10
20
-22.927163777452787
10
-10
20
-85
10
-100.21996245218486
20
-85
42
-0.41421356237309503
10
-105.21996245218487
20
-79.999999999999986
10
-105.21996245218487
20
-27.927163777452794
42
-0.41421356237309503
0
LWPOLYLINE
5
113
100
AcDbEntity
8
0
100
AcDbPolyline
90
4
70
1
43
0.0
10
118.29499598725357
20
-89.000001326203346
10
83.038550885728768
20
-89.000001326203346
10
83.038550885728768
20
-68.000001013278961
10
118.29499598725357
20
-68.000001013278961
0
LWPOLYLINE
5
114
100
AcDbEntity
8
0
100
AcDbPolyline
90
10
70
1
43
0.0
10
100.11990815511652
20
-22.927163777452787
10
70
20
-22.927163777452787
10
10
20
-22.927163777452787
10
10
20
-85
10
65
20
-85
42
0.41421356237309398
10
70
20
-80
10
70
20
-56.118426091459696
10
100.11990815511652
20
-56.118426091459696
42
0.41421356237309503
10
105.11990815511652
20
-51.118426091459696
10
105.11990815511652
20
-27.927163777452787
42
0.41421356237309503
0
CIRCLE
5
115
100
AcDbEntity
8
0
100
AcDbCircle
10
116.9852679705
20
3.0899669799340002
30
0
40
1.5240030480060001
210
0
220
0
230
1
6
DASHED
0
CIRCLE
5
116
100
AcDbEntity
8
0
100
AcDbCircle
10
-116.98526797053
20
3.0949961899920004
30
0
40
1.5240030480060001
210
0
220
0
230
1
6
DASHED
0
ARC
5
117
100
AcDbEntity
8
0
100
AcDbCircle
10
-112.98698051364489
20
24.889853307501536
30
0
40
5
210
0
220
-0
230
1
100
AcDbArc
50
90
51
180
0
LINE
5
118
100
AcDbEntity
8
0
100
AcDbLine
10
-112.9852961629326
20
3.1100141267983981
30
0
11
-112.9852961629326
21
-3.0077118013445099
31
0
0
ARC
5
119
100
AcDbEntity
8
0
100
AcDbCircle
10
-107.98529616293258
20
-3.0077118013444792
30
0
40
5.0000000000000178
210
0
220
0
230
1
100
AcDbArc
50
180
51
269.99999999999983
0
LWPOLYLINE
5
120
100
AcDbEntity
8
0
100
AcDbPolyline
90
4
70
1
43
0.0
10
45.040283314819114
20
-8.0077118013444952
10
45.040283314819114
20
29.889853307501536
10
-45.230250294769114
20
29.889853307501536
10
-45.230250294769114
20
-8.0077118013444952
0
LINE
5
121
100
AcDbEntity
8
0
100
AcDbLine
10
-65.166147280291028
20
29.889853307501536
30
0
11
-65.166147280291028
21
-8.0077118013444952
31
0
0
LINE
5
122
100
AcDbEntity
8
0
100
AcDbLine
10
-107.9852961629326
20
-8.007711801344497
30
0
11
-65.166147280291028
21
-8.0077118013444952
31
0
0
LINE
5
123
100
AcDbEntity
8
0
100
AcDbLine
10
-65.166147280291028
20
29.889853307501536
30
0
11
-112.98698051364489
21
29.889853307501536
31
0
0
ARC
5
124
100
AcDbEntity
8
0
100
AcDbCircle
10
-116.98526797053
20
3.0949961899920004
30
0
40
4.0000000000000044
210
0
220
0
230
1
100
AcDbArc
50
-0.21511660441700151
51
104.50284849363553
0
CIRCLE
5
125
100
AcDbEntity
8
0
100
AcDbCircle
10
0
20
96.000254000500007
30
0
40
1.7000000000000002
210
0
220
0
230
1
0
CIRCLE
5
126
100
AcDbEntity
8
0
100
AcDbCircle
10
-120.00025400049999
20
96.000254000500007
30
0
40
1.7000000000000002
210
0
220
0
230
1
0
CIRCLE
5
127
100
AcDbEntity
8
0
100
AcDbCircle
10
-116.98526797053
20
3.0949961899920004
30
0
40
1.7000000000000002
210
0
220
0
230
1
0
CIRCLE
5
128
100
AcDbEntity
8
0
100
AcDbCircle
10
-120.00025400049999
20
-96.000254000507994
30
0
40
1.7000000000000002
210
0
220
0
230
1
0
CIRCLE
5
129
100
AcDbEntity
8
0
100
AcDbCircle
10
0
20
-96.000254000507994
30
0
40
1.7000000000000002
210
0
220
0
230
1
0
CIRCLE
5
130
100
AcDbEntity
8
0
100
AcDbCircle
10
120.00025400049999
20
-96.000254000507994
30
0
40
1.7000000000000002
210
0
220
0
230
1
0
CIRCLE
5
131
100
AcDbEntity
8
0
100
AcDbCircle
10
116.9852679705
20
3.0899669799340002
30
0
40
1.7000000000000002
210
0
220
0
230
1
0
CIRCLE
5
132
100
AcDbEntity
8
0
100
AcDbCircle
10
120.00025400049999
20
96.000254000500007
30
0
40
1.7000000000000002
210
0
220
0
230
1
0
ENDSEC
0
SECTION
2
OBJECTS
0
DICTIONARY
5
C
100
AcDbDictionary
3
ACAD_GROUP
350
D
3
ACAD_MLINESTYLE
350
17
0
DICTIONARY
5
D
100
AcDbDictionary
0
DICTIONARY
5
1A
330
C
100
AcDbDictionary
0
DICTIONARY
5
17
100
AcDbDictionary
0
ENDSEC
0
EOF
